<svg id="Group_5250" data-name="Group 5250" xmlns="http://www.w3.org/2000/svg" width="18.919" height="18.9" viewBox="0 0 18.919 18.9">
  <g id="Group_5249" data-name="Group 5249">
    <path id="Path_5640" data-name="Path 5640" d="M2045.9,13262.273a4.343,4.343,0,0,0-3.08-1.3h-.015a4.367,4.367,0,0,0-3.09,1.307.873.873,0,0,0,0,1.225.86.86,0,0,0,1.211,0,2.631,2.631,0,0,1,3.764-.014,2.682,2.682,0,0,1-.035,3.787l-10.1,10.1a2.695,2.695,0,0,1-3.811-3.811l6.765-6.764a1.213,1.213,0,0,1,1.641.217l.007.006a1,1,0,0,1,.327.7,1.029,1.029,0,0,1-.344.709l-5.1,5.1a.856.856,0,0,0,1.211,1.211l5.1-5.1a2.752,2.752,0,0,0,.845-1.908,2.694,2.694,0,0,0-.83-1.922l-.007,0a2.889,2.889,0,0,0-4.063-.221l-2.4,2.4-3.883,3.885-.48.479a4.406,4.406,0,0,0,6.232,6.229l10.1-10.1a4.4,4.4,0,0,0,.035-6.213Zm0,0" transform="translate(-2028.244 -13260.977)" fill="#b3b3b3"/>
  </g>
</svg>
