<svg id="Group_5252" data-name="Group 5252" xmlns="http://www.w3.org/2000/svg" width="20.498" height="17.864" viewBox="0 0 20.498 17.864">
  <g id="Group_5251" data-name="Group 5251">
    <path id="Path_5641" data-name="Path 5641" d="M2020.255,13271.116h-15.812a.879.879,0,0,0,0,1.758h15.812a.879.879,0,0,0,0-1.758Z" transform="translate(-2001.807 -13255.01)" fill="#b3b3b3"/>
    <path id="Path_5642" data-name="Path 5642" d="M2021.844,13261.527h-18.156a1.172,1.172,0,0,0-1.171,1.172v12.3a1.17,1.17,0,0,0,1.171,1.17h18.156a1.17,1.17,0,0,0,1.172-1.17v-12.3A1.172,1.172,0,0,0,2021.844,13261.527Zm-12.005,2.051a1.464,1.464,0,1,1-1.465,1.465A1.463,1.463,0,0,1,2009.839,13263.578Zm8.913,10.543h-11.97a1.015,1.015,0,0,1-.863-1.547l1.757-2.855a.874.874,0,0,1,1.507.031l1.456,2.625,3.646-5.471a.874.874,0,0,1,1.446-.01l3.858,5.639A1.015,1.015,0,0,1,2018.752,13274.121Z" transform="translate(-2002.518 -13261.527)" fill="#b3b3b3"/>
  </g>
</svg>
