<svg id="Group_5228" data-name="Group 5228" xmlns="http://www.w3.org/2000/svg" width="20.545" height="19.899" viewBox="0 0 20.545 19.899">
  <g id="Group_5227" data-name="Group 5227" transform="translate(0 0)">
    <path id="Path_5624" data-name="Path 5624" d="M2269.932,4104.147l-6.638-5.749a1.062,1.062,0,0,0-1.391,0l-6.638,5.749a1.062,1.062,0,0,0-.367.8v8.363a.265.265,0,0,0,.265.265h4.78a.265.265,0,0,0,.265-.265v-5.662a1.062,1.062,0,0,1,1.062-1.062h2.656a1.062,1.062,0,0,1,1.062,1.063v5.662a.265.265,0,0,0,.265.265h4.78a.265.265,0,0,0,.265-.265v-8.363A1.061,1.061,0,0,0,2269.932,4104.147Z" transform="translate(-2252.325 -4093.68)" fill="#fff"/>
    <path id="Path_5625" data-name="Path 5625" d="M2268.584,4094.729l-8.4-7.271a2.294,2.294,0,0,0-3,0l-3.264,2.826v-2.379h-2.961v4.943l-2.171,1.88a1.085,1.085,0,0,0-.057,1.587h0a1.085,1.085,0,0,0,1.476.052l7.728-6.691a1.147,1.147,0,0,1,1.5,0l7.727,6.691a1.084,1.084,0,1,0,1.42-1.639Z" transform="translate(-2248.413 -4086.898)" fill="#fff"/>
  </g>
</svg>
