<svg xmlns="http://www.w3.org/2000/svg" width="15.892" height="14.608" viewBox="0 0 15.892 14.608">
  <g id="Group_147" data-name="Group 147" transform="translate(0 0)">
    <g id="Group_146" data-name="Group 146">
      <path id="Path_125" data-name="Path 125" d="M1634.6,1367.856a.47.47,0,0,1-.47.471h-10.654a.471.471,0,0,1-.47-.471v-8.218a.471.471,0,0,1,.47-.47h6.99l1.151-1.152h-8.141a1.623,1.623,0,0,0-1.621,1.622v8.218a1.623,1.623,0,0,0,1.621,1.622h10.654a1.623,1.623,0,0,0,1.621-1.622v-8.011L1634.6,1361Z" transform="translate(-1621.855 -1354.87)" fill="#d0caca"/>
      <path id="Rectangle_39" data-name="Rectangle 39" d="M.186,0H5.9a.186.186,0,0,1,.186.186V2.3A.185.185,0,0,1,5.9,2.49H.186A.186.186,0,0,1,0,2.3V.186A.186.186,0,0,1,.186,0Z" transform="translate(7.882 6.25) rotate(-45.002)" fill="#d0caca"/>
      <path id="Path_126" data-name="Path 126" d="M1627.162,1361.175c-.16.159-.39.389-.5.5a.236.236,0,0,0-.069.153l-.123,1.594a.247.247,0,0,0,.273.264l1.531-.176a.241.241,0,0,0,.146-.07l.5-.5a.246.246,0,0,0,0-.349l-1.412-1.412A.247.247,0,0,0,1627.162,1361.175Z" transform="translate(-1620.346 -1353.86)" fill="#d0caca"/>
      <path id="Rectangle_40" data-name="Rectangle 40" d="M.185,0H1.356a.185.185,0,0,1,.185.185V2.3a.186.186,0,0,1-.186.186H.186A.186.186,0,0,1,0,2.3V.185A.185.185,0,0,1,.185,0Z" transform="translate(13.042 1.09) rotate(-44.998)" fill="#d0caca"/>
    </g>
  </g>
</svg>
