<svg xmlns="http://www.w3.org/2000/svg" width="24.27" height="16.493" viewBox="0 0 24.27 16.493">
  <g id="Group_21868" data-name="Group 21868" transform="translate(0 0)">
    <g id="Group_21867" data-name="Group 21867">
      <g id="Group_21866" data-name="Group 21866">
        <path id="Path_12597" data-name="Path 12597" d="M4776.311,2919.3h-2.49a.622.622,0,0,0-.622.623v6.844h3.733v-6.844A.622.622,0,0,0,4776.311,2919.3Z" transform="translate(-4760.286 -2913.698)" fill="#3766ff"/>
        <path id="Path_12598" data-name="Path 12598" d="M4786.375,2916.12a.623.623,0,0,0-.624-.622h-2.488a.622.622,0,0,0-.622.622v12.446h3.733Zm-10.579,2.49a.622.622,0,0,0-.622-.622h-2.489a.622.622,0,0,0-.623.622v9.956h3.734Zm11.978,11.515h-22.4a.933.933,0,0,0,0,1.866h22.4a.933.933,0,1,0,0-1.866Zm-17.269-7.159a.622.622,0,0,0-.623-.622h-2.489a.622.622,0,0,0-.622.622v5.6h3.734Z" transform="translate(-4764.439 -2915.498)" fill="#3766ff"/>
      </g>
    </g>
  </g>
</svg>
