<svg xmlns="http://www.w3.org/2000/svg" width="13.746" height="12.971" viewBox="0 0 13.746 12.971">
  <g id="Group_150" data-name="Group 150" transform="translate(0)">
    <g id="Group_149" data-name="Group 149">
      <path id="Path_127" data-name="Path 127" d="M1729.487,1356.9l-12.193,5.314a.776.776,0,0,0-.046,1.4l2.473,1.276,7.367-5.125a.1.1,0,0,1,.162.082l-6.172,5.89a.778.778,0,0,0-.24.561v2.728a.775.775,0,0,0,1.437.4l1.5-2.449,3.167,1.635a.775.775,0,0,0,1.109-.506l2.5-10.318A.776.776,0,0,0,1729.487,1356.9Z" transform="translate(-1716.828 -1356.83)" fill="#d0caca"/>
    </g>
  </g>
</svg>
