<svg xmlns="http://www.w3.org/2000/svg" width="14.514" height="14.514" viewBox="0 0 14.514 14.514">
  <path id="Path_116" data-name="Path 116" d="M882.189,1363.328a.333.333,0,0,0-.33-.279h-.683a.7.7,0,0,1-.464-.461,5.963,5.963,0,0,0-.5-1.144.327.327,0,0,1,.049-.4l.547-.547a.335.335,0,0,0,.035-.435,7.281,7.281,0,0,0-1.478-1.482.337.337,0,0,0-.437.036l-.547.547a.329.329,0,0,1-.4.049,5.941,5.941,0,0,0-1.633-.638h0v-1.03a.333.333,0,0,0-.28-.33,6.855,6.855,0,0,0-2.1,0,.331.331,0,0,0-.279.33v1.03h0a5.964,5.964,0,0,0-1.635.638.327.327,0,0,1-.4-.049l-.548-.547a.335.335,0,0,0-.435-.036,7.319,7.319,0,0,0-1.48,1.482.336.336,0,0,0,.036.435l.547.547a.327.327,0,0,1,.049.4,5.808,5.808,0,0,0-.5,1.144.7.7,0,0,1-.466.461h-.682a.332.332,0,0,0-.33.279,6.951,6.951,0,0,0,0,2.131.332.332,0,0,0,.33.279h.682a.7.7,0,0,1,.466.46,5.8,5.8,0,0,0,.5,1.144.329.329,0,0,1-.049.4l-.547.545a.335.335,0,0,0-.036.435,7.314,7.314,0,0,0,1.48,1.482.335.335,0,0,0,.435-.035l.548-.548a.327.327,0,0,1,.4-.049,5.923,5.923,0,0,0,1.635.637h0v1.03a.332.332,0,0,0,.279.33,6.855,6.855,0,0,0,2.1,0,.333.333,0,0,0,.28-.33v-1.03h0a5.9,5.9,0,0,0,1.633-.637.327.327,0,0,1,.4.049l.548.548a.337.337,0,0,0,.437.035,7.277,7.277,0,0,0,1.478-1.482.335.335,0,0,0-.035-.435l-.547-.545a.329.329,0,0,1-.049-.4,5.959,5.959,0,0,0,.5-1.144.7.7,0,0,1,.464-.46h.683a.333.333,0,0,0,.33-.279,6.941,6.941,0,0,0,0-2.131Zm-4.436,1.5a2.774,2.774,0,1,1-3.178-3.179A2.785,2.785,0,0,1,877.753,1364.833Z" transform="translate(-867.757 -1357.137)" fill="#d0caca"/>
</svg>
