<svg xmlns="http://www.w3.org/2000/svg" width="13.514" height="13.686" viewBox="0 0 13.514 13.686">
  <g id="Group_126" data-name="Group 126" transform="translate(0)">
    <g id="Group_125" data-name="Group 125">
      <path id="Path_114" data-name="Path 114" d="M807.927,1369.774l-4.489-4.489a.189.189,0,0,1-.056-.134v-7.476a.194.194,0,0,0-.223-.191,6.874,6.874,0,0,0-5.347,8.905,6.545,6.545,0,0,0,4.27,4.33,6.877,6.877,0,0,0,5.812-.646A.192.192,0,0,0,807.927,1369.774Z" transform="translate(-797.483 -1357.396)" fill="#3766ff"/>
      <path id="Path_115" data-name="Path 115" d="M802.848,1357.417a.193.193,0,0,0-.2.192v7.088a.191.191,0,0,0,.056.135l4.289,4.287a.192.192,0,0,0,.269,0,6.837,6.837,0,0,0-4.412-11.707Z" transform="translate(-795.795 -1357.417)" fill="#3766ff"/>
    </g>
  </g>
</svg>
